<svg width="24" height="24" viewBox="0 0 24 24" fill="none" xmlns="http://www.w3.org/2000/svg">
<path d="M12.3712 2.49996V12M12.3712 12L20.6071 7.27767M12.3712 12L4.13534 7.27767M12.3712 12V21.5M20.6071 16.7222L13.1241 12.4316C12.8493 12.2741 12.7119 12.1953 12.5664 12.1644C12.4376 12.1371 12.3048 12.1371 12.176 12.1644C12.0305 12.1953 11.8931 12.2741 11.6183 12.4316L4.13534 16.7222M21.0915 16.0585V7.94141C21.0915 7.59876 21.0915 7.42744 21.0426 7.27464C20.9993 7.13947 20.9286 7.01539 20.8351 6.9107C20.7294 6.79236 20.5843 6.70916 20.2941 6.54276L13.1241 2.43164C12.8493 2.27409 12.7119 2.19531 12.5664 2.16442C12.4376 2.13709 12.3048 2.13709 12.176 2.16442C12.0305 2.19531 11.8931 2.27409 11.6183 2.43165L4.44828 6.54276C4.15806 6.70916 4.01295 6.79236 3.90729 6.9107C3.81381 7.01539 3.74307 7.13947 3.69979 7.27465C3.65088 7.42745 3.65088 7.59877 3.65088 7.94141V16.0585C3.65088 16.4012 3.65088 16.5725 3.69979 16.7253C3.74307 16.8605 3.81381 16.9845 3.90729 17.0892C4.01295 17.2076 4.15806 17.2908 4.44828 17.4572L11.6183 21.5683C11.8931 21.7258 12.0305 21.8046 12.176 21.8355C12.3048 21.8628 12.4376 21.8628 12.5664 21.8355C12.7119 21.8046 12.8493 21.7258 13.1241 21.5683L20.2941 17.4572C20.5843 17.2908 20.7294 17.2076 20.8351 17.0892C20.9286 16.9845 20.9993 16.8605 21.0426 16.7253C21.0915 16.5725 21.0915 16.4012 21.0915 16.0585Z" stroke="#FF5555" stroke-width="2" stroke-linecap="round" stroke-linejoin="round"/>
</svg>
