<svg width="24" height="24" viewBox="0 0 24 24" fill="none" xmlns="http://www.w3.org/2000/svg">
<path d="M20.6071 16H8.4955M8.4955 16V3.5M8.4955 16L4.13534 20.5M4.13534 8H16.2469M16.2469 8V20.5M16.2469 8L20.6071 3.5M21.0915 15.3373V3.8C21.0915 3.51997 21.0915 3.37996 21.0387 3.273C20.9923 3.17892 20.9182 3.10243 20.827 3.0545C20.7234 3 20.5877 3 20.3164 3H9.13765C8.90066 3 8.78216 3 8.67065 3.02763C8.57179 3.05213 8.47727 3.09253 8.39058 3.14736C8.2928 3.2092 8.20901 3.29568 8.04143 3.46863L4.10495 7.53137C3.93737 7.70432 3.85358 7.7908 3.79366 7.89172C3.74053 7.98119 3.70139 8.07873 3.67765 8.18077C3.65088 8.29586 3.65088 8.41815 3.65088 8.66274V20.2C3.65088 20.48 3.65088 20.62 3.70368 20.727C3.75013 20.8211 3.82424 20.8976 3.9154 20.9455C4.01903 21 4.15469 21 4.42602 21H15.6047C15.8417 21 15.9602 21 16.0717 20.9724C16.1706 20.9479 16.2651 20.9075 16.3518 20.8526C16.4496 20.7908 16.5334 20.7043 16.701 20.5314L20.6375 16.4686C20.805 16.2957 20.8888 16.2092 20.9487 16.1083C21.0019 16.0188 21.041 15.9213 21.0647 15.8192C21.0915 15.7041 21.0915 15.5818 21.0915 15.3373Z" stroke="#FF5555" stroke-width="2" stroke-linecap="round" stroke-linejoin="round"/>
</svg>
