<svg width="48" height="49" viewBox="0 0 48 49" fill="none" xmlns="http://www.w3.org/2000/svg">
<ellipse cx="23.9983" cy="24.9761" rx="23.2542" ry="24" fill="#FF5555"/>
<path d="M23.9983 14.9761L22.7373 20.1821C22.4912 21.1979 22.3682 21.7059 22.1119 22.1192C21.8852 22.4848 21.5844 22.7952 21.2302 23.0292C20.8297 23.2936 20.3376 23.4206 19.3533 23.6746L14.3091 24.9761L19.3533 26.2776C20.3376 26.5315 20.8297 26.6585 21.2302 26.923C21.5844 27.1569 21.8852 27.4674 22.1119 27.833C22.3682 28.2463 22.4912 28.7542 22.7373 29.7701L23.9983 34.9761L25.2594 29.7701C25.5055 28.7542 25.6285 28.2463 25.8847 27.833C26.1114 27.4674 26.4122 27.1569 26.7665 26.923C27.1669 26.6585 27.6591 26.5315 28.6434 26.2776L33.6876 24.9761L28.6434 23.6746C27.6591 23.4206 27.1669 23.2936 26.7665 23.0292C26.4122 22.7952 26.1114 22.4848 25.8847 22.1192C25.6285 21.7059 25.5055 21.1979 25.2594 20.1821L23.9983 14.9761Z" stroke="white" stroke-width="2" stroke-linecap="round" stroke-linejoin="round"/>
</svg>
