<svg width="47" height="49" viewBox="0 0 47 49" fill="none" xmlns="http://www.w3.org/2000/svg">
<ellipse cx="23.2454" cy="24.488" rx="23.2542" ry="24" fill="#FF5555"/>
<path d="M25.1834 33.488H21.3077M29.0591 20.488C29.0591 18.8967 28.4466 17.3706 27.3563 16.2454C26.2661 15.1202 24.7874 14.488 23.2455 14.488C21.7037 14.488 20.225 15.1202 19.1347 16.2454C18.0445 17.3706 17.432 18.8967 17.432 20.488C17.432 23.5782 16.6767 25.694 15.8329 27.0934C15.1212 28.2739 14.7654 28.8641 14.7784 29.0288C14.7929 29.2111 14.8303 29.2806 14.9726 29.3896C15.1012 29.488 15.6807 29.488 16.8398 29.488H29.6512C30.8103 29.488 31.3899 29.488 31.5184 29.3896C31.6608 29.2806 31.6982 29.2111 31.7127 29.0288C31.7257 28.8641 31.3698 28.2739 30.6581 27.0935C29.8144 25.694 29.0591 23.5782 29.0591 20.488Z" stroke="white" stroke-width="2" stroke-linecap="round" stroke-linejoin="round"/>
</svg>
