<svg width="117" height="35" viewBox="0 0 117 35" fill="none" xmlns="http://www.w3.org/2000/svg">
<path d="M108.83 14V11.4683H108.046V10.908H110.245V11.4683H109.473V14H108.83ZM110.564 14V10.908H111.186L112.344 12.4436H112.054L113.179 10.908H113.801V14H113.158V11.6177L113.415 11.6758L112.224 13.2114H112.141L110.991 11.6758L111.207 11.6177V14H110.564Z" fill="black"/>
<path d="M46.5861 28.13C47.622 28.13 48.5384 27.9408 49.3353 27.5623C50.1322 27.1638 50.7398 26.5662 51.1582 25.7693V27.7714H55.3417V11.4555H50.8593V20.9881C50.8593 21.9244 50.5804 22.6814 50.0226 23.2592C49.4648 23.817 48.7476 24.0959 47.8711 24.0959C46.9945 24.0959 46.2773 23.817 45.7195 23.2592C45.1617 22.6814 44.8828 21.9244 44.8828 20.9881V11.4555H40.4004V21.3467C40.4004 23.3787 40.9283 25.0222 41.9842 26.2773C43.06 27.5125 44.5939 28.13 46.5861 28.13Z" fill="black"/>
<path d="M58.6179 9.99124H63.1003V5.50883H58.6179V9.99124ZM58.6179 27.7714H63.1003V11.4555H58.6179V27.7714Z" fill="black"/>
<path d="M68.3526 27.7714H72.835V15.3402H76.3313V11.4555H72.835V11.2164C72.835 9.76214 73.6817 9.03499 75.3751 9.03499C75.654 9.03499 75.9827 9.06487 76.3612 9.12464V5.29965C75.903 5.20004 75.3751 5.15024 74.7774 5.15024C72.7454 5.15024 71.1616 5.67817 70.0261 6.73402C68.9104 7.78988 68.3526 9.28401 68.3526 11.2164V11.4555H65.6034V15.3402H68.3526V27.7714Z" fill="black"/>
<path d="M78.6369 27.7714H83.1194V18.9859C83.1194 17.7707 83.458 16.8344 84.1354 16.177C84.8127 15.4996 85.6992 15.1609 86.7949 15.1609H88.1994V11.2762H87.2432C86.2471 11.2762 85.3606 11.4654 84.5836 11.844C83.8266 12.2026 83.2389 12.8899 82.8205 13.9059V11.4555H78.6369V27.7714Z" fill="black"/>
<path d="M92.704 34.4054C95.6923 34.4054 97.8538 32.7021 99.1885 29.2955L106.181 11.4555H101.37L97.5151 21.9443L93.6602 11.4555H88.8491L95.2739 27.7714L94.9751 28.4587C94.736 28.9966 94.4272 29.4748 94.0487 29.8931C93.6702 30.3115 93.0427 30.5207 92.1661 30.5207C91.4489 30.5207 90.7716 30.421 90.1341 30.2218V33.8974C90.4728 34.0767 90.8612 34.2062 91.2995 34.2859C91.7577 34.3656 92.2259 34.4054 92.704 34.4054Z" fill="black"/>
<path d="M26.383 10.8852C26.1565 10.6652 25.8388 10.5652 25.5279 10.6163C25.2164 10.6672 24.9473 10.8628 24.8028 11.1434C24.3059 12.1089 23.6746 12.9962 22.9319 13.7805C23.006 13.2139 23.0432 12.6439 23.0432 12.0724C23.0432 10.9759 22.8963 9.84744 22.6063 8.71807C21.6528 5.00855 19.1526 1.87145 15.747 0.11122C15.4505 -0.041979 15.0972 -0.0366001 14.8054 0.125564C14.5137 0.287794 14.3227 0.585228 14.2965 0.917923C14.031 4.28897 12.2946 7.35588 9.52993 9.33425C9.49334 9.36061 9.45702 9.38731 9.4207 9.41387C9.34546 9.46892 9.27454 9.52099 9.20826 9.56468C9.1979 9.57159 9.18761 9.57863 9.17752 9.58586C7.43873 10.8308 6.00403 12.4903 5.02832 14.3854C4.03688 16.3131 3.53418 18.3818 3.53418 20.5337C3.53418 21.6299 3.68114 22.7583 3.971 23.8879C5.50067 29.8417 10.8586 33.9999 17.0005 33.9999C24.4255 33.9999 30.466 27.9589 30.466 20.5337C30.466 16.872 29.016 13.4455 26.383 10.8852V10.8852Z" fill="#FF5555"/>
<circle cx="16" cy="20" r="4" fill="white"/>
</svg>
