<svg width="24" height="25" viewBox="0 0 24 25" fill="none" xmlns="http://www.w3.org/2000/svg">
<path d="M16.9395 3.70898C18.2805 3.70898 19.5705 4.23898 20.5195 5.18998C21.4695 6.13898 22.0005 7.41898 22.0005 8.75898V16.659C22.0005 19.449 19.7305 21.709 16.9395 21.709H7.06049C4.26949 21.709 2.00049 19.449 2.00049 16.659V8.75898C2.00049 5.96898 4.25949 3.70898 7.06049 3.70898H16.9395ZM18.0705 8.90898C17.8605 8.89798 17.6605 8.96898 17.5095 9.10898L13.0005 12.709C12.4205 13.19 11.5895 13.19 11.0005 12.709L6.50049 9.10898C6.18949 8.87898 5.75949 8.90898 5.50049 9.17898C5.23049 9.44898 5.20049 9.87898 5.42949 10.179L5.56049 10.309L10.1105 13.859C10.6705 14.299 11.3495 14.539 12.0605 14.539C12.7695 14.539 13.4605 14.299 14.0195 13.859L18.5305 10.249L18.6105 10.169C18.8495 9.87898 18.8495 9.45898 18.5995 9.16898C18.4605 9.01998 18.2695 8.92898 18.0705 8.90898Z" fill="#FF5555"/>
</svg>
