<svg width="24" height="24" viewBox="0 0 24 24" fill="none" xmlns="http://www.w3.org/2000/svg">
<g clip-path="url(#clip0_207_252)">
<path d="M12.3714 2L11.1103 7.20599C10.8642 8.22185 10.7412 8.72978 10.485 9.14309C10.2583 9.50868 9.95747 9.81915 9.60324 10.0531C9.20277 10.3176 8.71063 10.4445 7.72634 10.6985L2.68213 12L7.72634 13.3015C8.71063 13.5555 9.20277 13.6824 9.60324 13.9469C9.95747 14.1808 10.2583 14.4913 10.485 14.8569C10.7412 15.2702 10.8642 15.7782 11.1103 16.794L12.3714 22L13.6324 16.794C13.8785 15.7782 14.0015 15.2702 14.2578 14.8569C14.4845 14.4913 14.7853 14.1808 15.1395 13.9469C15.54 13.6824 16.0321 13.5555 17.0164 13.3015L22.0606 12L17.0164 10.6985C16.0321 10.4445 15.54 10.3176 15.1395 10.0531C14.7853 9.81915 14.4845 9.50868 14.2578 9.14309C14.0015 8.72978 13.8785 8.22185 13.6324 7.20599L12.3714 2Z" stroke="#FF5555" stroke-width="2" stroke-linecap="round" stroke-linejoin="round"/>
</g>
<defs>
<clipPath id="clip0_207_252">
<rect width="23.2542" height="24" fill="white" transform="translate(0.744141)"/>
</clipPath>
</defs>
</svg>
